<?xml version="1.0" encoding="UTF-8" standalone="no"?>
<!-- Created with Inkscape (http://www.inkscape.org/) -->

<svg
   xmlns:dc="http://purl.org/dc/elements/1.1/"
   xmlns:cc="http://creativecommons.org/ns#"
   xmlns:rdf="http://www.w3.org/1999/02/22-rdf-syntax-ns#"
   xmlns:svg="http://www.w3.org/2000/svg"
   xmlns="http://www.w3.org/2000/svg"
   xmlns:sodipodi="http://sodipodi.sourceforge.net/DTD/sodipodi-0.dtd"
   xmlns:inkscape="http://www.inkscape.org/namespaces/inkscape"
   viewBox="0 0 55.033329 18.662209"
   preserveAspectRatio="xMaxYMax meet"
   version="1.1"
   id="svg8"
   inkscape:version="0.92.4 (5da689c313, 2019-01-14)"
   sodipodi:docname="Logo_Letreiro.svg">
  <defs
     id="defs2" />
  <sodipodi:namedview
     id="base"
     pagecolor="#ffffff"
     bordercolor="#666666"
     borderopacity="1.0"
     inkscape:pageopacity="0.0"
     inkscape:pageshadow="2"
     inkscape:zoom="5.1406664"
     inkscape:cx="92.385915"
     inkscape:cy="31.428416"
     inkscape:document-units="px"
     inkscape:current-layer="g900"
     showgrid="false"
     inkscape:window-width="1920"
     inkscape:window-height="1017"
     inkscape:window-x="-8"
     inkscape:window-y="-8"
     inkscape:window-maximized="1"
     units="px"
     fit-margin-top="4"
     fit-margin-left="4"
     fit-margin-right="4"
     fit-margin-bottom="4" />
  <metadata
     id="metadata5">
    <rdf:RDF>
      <cc:Work
         rdf:about="">
        <dc:format>image/svg+xml</dc:format>
        <dc:type
           rdf:resource="http://purl.org/dc/dcmitype/StillImage" />
        <dc:title></dc:title>
      </cc:Work>
    </rdf:RDF>
  </metadata>
  <g
     inkscape:label="Layer 1"
     inkscape:groupmode="layer"
     id="layer1"
     transform="translate(-92.926714,-36.86313)" />
  <g
     inkscape:groupmode="layer"
     id="layer2"
     inkscape:label="Layer_2"
     transform="translate(-92.926714,-36.86313)">
    <g
       id="g892"
       transform="translate(-1.8520833,-34.528125)">
      <g
         id="g869" />
    </g>
    <g
       id="g900"
       transform="matrix(0.47984178,0,0,0.47984178,62.374368,24.097124)">
      <g
         id="g1671">
        <path
           d="m 80.757842,44.682333 h -5.600795 c -1.482564,0 -2.580759,-0.289637 -3.294586,-0.868912 -1.098196,-0.839949 -1.674748,-2.838447 -1.674748,-5.676894 0,-1.998498 0.329459,-3.533576 0.933466,-4.315597 0.796191,-1.042695 2.086571,-1.564042 3.898593,-1.564042 h 5.73807 v -3.446686 h -6.204803 c -1.784567,0 -3.59659,0.347565 -4.639875,0.868912 -2.580759,1.274405 -4.035868,4.489381 -4.035868,8.833942 0,3.446685 0.851102,6.11135 2.41603,7.704355 1.427653,1.448187 2.937673,1.911608 6.094984,1.911608 h 6.369532 z"
           style="font-style:normal;font-variant:normal;font-weight:bold;font-stretch:normal;font-size:28.19922256px;line-height:1.25;font-family:'Handel Gothic D';-inkscape-font-specification:'Handel Gothic D, Bold';font-variant-ligatures:normal;font-variant-caps:normal;font-variant-numeric:normal;font-feature-settings:normal;text-align:start;letter-spacing:0px;word-spacing:0px;writing-mode:lr-tb;text-anchor:start;fill:#1f5581;fill-opacity:1;stroke:none;stroke-width:1.17496753"
           id="path1637"
           inkscape:connector-curvature="0" />
        <path
           d="m 97.269809,28.810202 h -6.589173 c -2.470939,0 -3.733863,0.405493 -5.024242,1.564042 -2.031662,1.824715 -3.102402,4.547307 -3.102402,7.96503 0,3.214975 0.851101,5.908603 2.416029,7.617464 1.455109,1.62197 3.322041,2.172281 7.220635,2.172281 h 5.079153 v -3.446686 h -4.914424 c -3.733864,0 -5.106608,-1.129586 -5.381158,-4.431453 H 97.269809 V 36.804195 H 86.974227 c 0.137275,-1.911607 0.247094,-2.346063 0.796193,-3.128084 0.796191,-1.100623 1.784566,-1.419223 4.420236,-1.419223 h 5.079153 z"
           style="font-style:normal;font-variant:normal;font-weight:bold;font-stretch:normal;font-size:28.19922256px;line-height:1.25;font-family:'Handel Gothic D';-inkscape-font-specification:'Handel Gothic D, Bold';font-variant-ligatures:normal;font-variant-caps:normal;font-variant-numeric:normal;font-feature-settings:normal;text-align:start;letter-spacing:0px;word-spacing:0px;writing-mode:lr-tb;text-anchor:start;fill:#1f5581;fill-opacity:1;stroke:none;stroke-width:1.17496753"
           id="path1639"
           inkscape:connector-curvature="0" />
        <path
           d="m 104.22491,40.801192 h 3.12985 c 3.45931,0 4.61242,1.071658 4.96933,4.576271 0.0275,0.376529 0.10982,1.187514 0.16473,1.708861 0.0549,0.434456 0.0824,0.608239 0.21964,1.042695 h 4.36532 c -0.24709,-0.724094 -0.302,-1.129587 -0.43927,-2.925339 -0.13728,-3.012229 -1.18056,-4.750053 -3.32204,-5.358292 2.36112,-0.868912 3.48677,-2.693628 3.48677,-5.64793 0,-1.766788 -0.74129,-3.33083 -2.03166,-4.25767 -1.0982,-0.810985 -2.71803,-1.129586 -5.49098,-1.129586 h -8.95029 v 19.318817 h 3.8986 z m 0,-3.446686 v -5.097618 h 5.46351 c 0.65892,0 1.15311,0.05793 1.45511,0.144818 0.85111,0.318601 1.34529,1.129586 1.34529,2.288136 0,1.882643 -0.79619,2.664664 -2.8004,2.664664 z"
           style="font-style:normal;font-variant:normal;font-weight:bold;font-stretch:normal;font-size:28.19922256px;line-height:1.25;font-family:'Handel Gothic D';-inkscape-font-specification:'Handel Gothic D, Bold';font-variant-ligatures:normal;font-variant-caps:normal;font-variant-numeric:normal;font-feature-settings:normal;text-align:start;letter-spacing:0px;word-spacing:0px;writing-mode:lr-tb;text-anchor:start;fill:#1f5581;fill-opacity:1;stroke:none;stroke-width:1.17496753"
           id="path1641"
           inkscape:connector-curvature="0" />
        <path
           d="m 125.60797,28.810202 h -5.71062 v 19.318817 h 3.70641 V 33.618183 l 4.53005,14.510836 h 4.00842 l 4.8046,-14.510836 v 14.510836 h 3.70641 V 28.810202 h -5.68316 l -4.8046,15.09011 z"
           style="font-style:normal;font-variant:normal;font-weight:bold;font-stretch:normal;font-size:28.19922256px;line-height:1.25;font-family:'Handel Gothic D';-inkscape-font-specification:'Handel Gothic D, Bold';font-variant-ligatures:normal;font-variant-caps:normal;font-variant-numeric:normal;font-feature-settings:normal;text-align:start;letter-spacing:0px;word-spacing:0px;writing-mode:lr-tb;text-anchor:start;fill:#1f5581;fill-opacity:1;stroke:none;stroke-width:1.17496753"
           id="path1643"
           inkscape:connector-curvature="0" />
        <path
           d="m 142.64715,48.129019 h 4.58497 l 1.75711,-4.489381 h 6.97354 l 1.75711,4.489381 h 4.55751 l -7.57755,-19.318817 h -4.47514 z m 9.82885,-14.684618 2.60821,6.748552 h -5.21643 z"
           style="font-style:normal;font-variant:normal;font-weight:bold;font-stretch:normal;font-size:28.19922256px;line-height:1.25;font-family:'Handel Gothic D';-inkscape-font-specification:'Handel Gothic D, Bold';font-variant-ligatures:normal;font-variant-caps:normal;font-variant-numeric:normal;font-feature-settings:normal;text-align:start;letter-spacing:0px;word-spacing:0px;writing-mode:lr-tb;text-anchor:start;fill:#1f5581;fill-opacity:1;stroke:none;stroke-width:1.17496753"
           id="path1645"
           inkscape:connector-curvature="0" />
        <path
           d="m 166.21802,32.256888 v 15.872131 h 3.8986 V 32.256888 h 6.04007 v -3.446686 h -15.78655 v 3.446686 z"
           style="font-style:normal;font-variant:normal;font-weight:bold;font-stretch:normal;font-size:28.19922256px;line-height:1.25;font-family:'Handel Gothic D';-inkscape-font-specification:'Handel Gothic D, Bold';font-variant-ligatures:normal;font-variant-caps:normal;font-variant-numeric:normal;font-feature-settings:normal;text-align:start;letter-spacing:0px;word-spacing:0px;writing-mode:lr-tb;text-anchor:start;fill:#1f5581;fill-opacity:1;stroke:none;stroke-width:1.17496753"
           id="path1647"
           inkscape:connector-curvature="0" />
        <g
           id="text844"
           style="font-style:normal;font-variant:normal;font-weight:bold;font-stretch:normal;font-size:13.96717644px;line-height:1.25;font-family:Calibri;-inkscape-font-specification:'Calibri, Bold';font-variant-ligatures:normal;font-variant-caps:normal;font-variant-numeric:normal;font-feature-settings:normal;text-align:start;letter-spacing:0px;word-spacing:0px;writing-mode:lr-tb;text-anchor:start;fill:#dd8a43;fill-opacity:1;stroke:none;stroke-width:0.58195704"
           transform="scale(0.92497055,1.0811155)"
           aria-label="CERÂMICA">
          <path
             id="path1620"
             style="font-style:normal;font-variant:normal;font-weight:bold;font-stretch:normal;font-size:13.96717644px;font-family:Calibri;-inkscape-font-specification:'Calibri, Bold';font-variant-ligatures:normal;font-variant-caps:normal;font-variant-numeric:normal;font-feature-settings:normal;text-align:start;writing-mode:lr-tb;text-anchor:start;fill:#dd8a43;fill-opacity:1;stroke-width:0.58195704"
             d="m 135.33647,57.062803 q 0,0.170498 -0.0136,0.293256 -0.007,0.115939 -0.0273,0.204598 -0.0205,0.08184 -0.0546,0.143218 -0.0341,0.06138 -0.10912,0.143218 -0.075,0.07502 -0.29325,0.197777 -0.21142,0.122759 -0.52514,0.238697 -0.30689,0.109119 -0.70927,0.184138 -0.39555,0.07502 -0.85931,0.07502 -0.90705,0 -1.63678,-0.279617 -0.72973,-0.279616 -1.24122,-0.832029 -0.51149,-0.559232 -0.78429,-1.391261 -0.2728,-0.832029 -0.2728,-1.936855 0,-1.125285 0.30008,-1.998234 0.30008,-0.872948 0.83885,-1.46628 0.53877,-0.593333 1.28896,-0.900229 0.75701,-0.306896 1.66406,-0.306896 0.36828,0 0.70927,0.06138 0.341,0.06138 0.62743,0.163678 0.29326,0.09548 0.52514,0.225057 0.23187,0.129578 0.32053,0.225057 0.0955,0.08866 0.12958,0.150038 0.0341,0.06138 0.0546,0.156858 0.0205,0.09548 0.0273,0.225057 0.0136,0.129578 0.0136,0.320535 0,0.204598 -0.0136,0.347816 -0.0136,0.143218 -0.0477,0.231877 -0.0341,0.08866 -0.0818,0.129578 -0.0477,0.04092 -0.10912,0.04092 -0.1023,0 -0.25915,-0.115939 -0.15686,-0.122758 -0.4092,-0.265976 -0.24552,-0.150038 -0.59333,-0.265977 -0.341,-0.122758 -0.81839,-0.122758 -0.52513,0 -0.94115,0.218237 -0.40919,0.211417 -0.70245,0.613792 -0.28643,0.395555 -0.43647,0.961607 -0.15004,0.566053 -0.15004,1.275323 0,0.77747 0.15686,1.350343 0.16368,0.566052 0.45693,0.934327 0.30008,0.368275 0.71609,0.552413 0.42284,0.177318 0.94797,0.177318 0.47739,0 0.82521,-0.109119 0.34781,-0.115938 0.59333,-0.252337 0.25234,-0.136398 0.4092,-0.245516 0.16367,-0.109119 0.25233,-0.109119 0.0682,0 0.10912,0.02728 0.0409,0.02728 0.0682,0.109118 0.0273,0.08184 0.0409,0.231877 0.0136,0.143218 0.0136,0.388735 z" />
          <path
             id="path1622"
             style="font-style:normal;font-variant:normal;font-weight:bold;font-stretch:normal;font-size:13.96717644px;font-family:Calibri;-inkscape-font-specification:'Calibri, Bold';font-variant-ligatures:normal;font-variant-caps:normal;font-variant-numeric:normal;font-feature-settings:normal;text-align:start;writing-mode:lr-tb;text-anchor:start;fill:#dd8a43;fill-opacity:1;stroke-width:0.58195704"
             d="m 141.8563,57.697055 q 0,0.197777 -0.0205,0.334175 -0.0136,0.129579 -0.0477,0.211418 -0.0341,0.08184 -0.0886,0.122758 -0.0477,0.0341 -0.10912,0.0341 h -4.43295 q -0.22505,0 -0.38191,-0.129579 -0.15004,-0.136398 -0.15004,-0.436474 v -7.692859 q 0,-0.300076 0.15004,-0.429654 0.15686,-0.136398 0.38191,-0.136398 h 4.40567 q 0.0614,0 0.10912,0.0341 0.0477,0.0341 0.0818,0.122759 0.0341,0.08184 0.0477,0.218237 0.0205,0.129578 0.0205,0.334175 0,0.190958 -0.0205,0.327356 -0.0136,0.129578 -0.0477,0.211417 -0.0341,0.08184 -0.0818,0.122759 -0.0477,0.0341 -0.10912,0.0341 h -3.1508 v 2.155092 h 2.66658 q 0.0614,0 0.10912,0.04092 0.0546,0.0341 0.0887,0.115939 0.0341,0.07502 0.0477,0.211417 0.0205,0.129578 0.0205,0.320536 0,0.197777 -0.0205,0.327355 -0.0136,0.129579 -0.0477,0.211418 -0.0341,0.07502 -0.0887,0.109118 -0.0477,0.0341 -0.10912,0.0341 h -2.66658 v 2.489267 h 3.17808 q 0.0614,0 0.10912,0.04092 0.0545,0.0341 0.0886,0.115938 0.0341,0.08184 0.0477,0.218237 0.0205,0.129578 0.0205,0.327356 z" />
          <path
             id="path1624"
             style="font-style:normal;font-variant:normal;font-weight:bold;font-stretch:normal;font-size:13.96717644px;font-family:Calibri;-inkscape-font-specification:'Calibri, Bold';font-variant-ligatures:normal;font-variant-caps:normal;font-variant-numeric:normal;font-feature-settings:normal;text-align:start;writing-mode:lr-tb;text-anchor:start;fill:#dd8a43;fill-opacity:1;stroke-width:0.58195704"
             d="m 149.99246,58.167629 q 0,0.07502 -0.0273,0.129578 -0.0273,0.04774 -0.12958,0.08184 -0.1023,0.0341 -0.30008,0.04774 -0.19777,0.01364 -0.53877,0.01364 -0.28644,0 -0.45693,-0.01364 -0.1705,-0.01364 -0.2728,-0.04774 -0.0955,-0.04092 -0.1364,-0.09548 -0.0409,-0.06138 -0.0682,-0.143218 l -0.79111,-1.970954 q -0.14322,-0.334176 -0.27961,-0.593332 -0.1364,-0.259157 -0.3069,-0.429655 -0.16368,-0.177317 -0.38192,-0.265976 -0.21823,-0.08866 -0.50467,-0.08866 h -0.55923 v 3.362216 q 0,0.0682 -0.0477,0.122758 -0.0409,0.05456 -0.14322,0.08866 -0.1023,0.0341 -0.2728,0.05456 -0.17049,0.02046 -0.43647,0.02046 -0.25916,0 -0.43647,-0.02046 -0.1705,-0.02046 -0.2728,-0.05456 -0.1023,-0.0341 -0.14322,-0.08866 -0.0409,-0.05456 -0.0409,-0.122758 v -8.013395 q 0,-0.300076 0.15004,-0.429654 0.15686,-0.136398 0.38192,-0.136398 h 2.28467 q 0.34781,0 0.57287,0.01364 0.22505,0.01364 0.40919,0.0341 0.53196,0.07502 0.95479,0.259157 0.42965,0.184137 0.72291,0.484213 0.30008,0.293256 0.45693,0.702451 0.15686,0.402375 0.15686,0.927508 0,0.443294 -0.11594,0.811569 -0.10911,0.361455 -0.32735,0.647892 -0.21824,0.286436 -0.53877,0.497853 -0.32054,0.211417 -0.72974,0.340996 0.19778,0.09548 0.36828,0.231877 0.17732,0.136398 0.32736,0.334175 0.15685,0.190958 0.29325,0.443294 0.1364,0.245517 0.26598,0.559233 l 0.74337,1.739077 q 0.1023,0.259157 0.1364,0.381915 0.0341,0.115939 0.0341,0.184138 z m -2.31195,-5.987882 q 0,-0.436474 -0.19778,-0.73655 -0.19778,-0.300076 -0.64789,-0.422834 -0.1364,-0.0341 -0.31372,-0.05456 -0.1705,-0.02046 -0.47739,-0.02046 h -0.80475 v 2.502907 h 0.91387 q 0.38191,0 0.66835,-0.08866 0.28643,-0.09548 0.47739,-0.259157 0.19096,-0.170498 0.28644,-0.402374 0.0955,-0.231877 0.0955,-0.518314 z" />
          <path
             id="path1626"
             style="font-style:normal;font-variant:normal;font-weight:bold;font-stretch:normal;font-size:13.96717644px;font-family:Calibri;-inkscape-font-specification:'Calibri, Bold';font-variant-ligatures:normal;font-variant-caps:normal;font-variant-numeric:normal;font-feature-settings:normal;text-align:start;writing-mode:lr-tb;text-anchor:start;fill:#dd8a43;fill-opacity:1;stroke-width:0.58195704"
             d="m 158.53098,57.731154 q 0.0818,0.245517 0.1023,0.388735 0.0205,0.143218 -0.0546,0.218237 -0.075,0.0682 -0.26597,0.08184 -0.19096,0.02046 -0.52514,0.02046 -0.34781,0 -0.54559,-0.01364 -0.19096,-0.0068 -0.29326,-0.0341 -0.10229,-0.0341 -0.14321,-0.08866 -0.0409,-0.05456 -0.0682,-0.143218 l -0.59334,-1.773177 h -3.31447 l -0.55923,1.725437 q -0.0273,0.09548 -0.075,0.163678 -0.0409,0.06138 -0.14322,0.102299 -0.0955,0.0341 -0.27962,0.04774 -0.17732,0.01364 -0.47057,0.01364 -0.31372,0 -0.49104,-0.02046 -0.17731,-0.02046 -0.24551,-0.09548 -0.0682,-0.08184 -0.0477,-0.225057 0.0205,-0.143219 0.1023,-0.381915 l 2.72114,-7.829258 q 0.0409,-0.115938 0.0955,-0.184137 0.0546,-0.07502 0.1705,-0.109119 0.12276,-0.04092 0.33417,-0.04774 0.21142,-0.01364 0.55924,-0.01364 0.40237,0 0.64107,0.01364 0.23869,0.0068 0.36827,0.04774 0.1364,0.0341 0.19096,0.109119 0.0614,0.07502 0.1023,0.204597 z m -4.05102,-6.472095 h -0.007 l -1.24805,3.750951 h 2.50291 z m 0.12957,-4.378382 q 0.21824,0 0.36828,0.0068 0.15004,0.0068 0.25234,0.04092 0.1023,0.02728 0.18413,0.08184 0.0818,0.05456 0.1705,0.150038 l 1.35034,1.459461 q 0.0887,0.09548 0.1023,0.163678 0.0205,0.06138 -0.0409,0.102299 -0.0546,0.0341 -0.19777,0.04774 -0.14322,0.01364 -0.38192,0.01364 -0.27962,0 -0.45693,-0.0068 -0.17732,-0.01364 -0.28644,-0.0341 -0.1023,-0.02728 -0.16368,-0.0682 -0.0546,-0.04092 -0.10912,-0.102298 l -0.80474,-0.934328 -0.83203,0.913868 q -0.0614,0.07502 -0.12276,0.115938 -0.0546,0.04092 -0.16368,0.0682 -0.1023,0.02728 -0.2728,0.04092 -0.17049,0.0068 -0.45693,0.0068 -0.23188,0 -0.36828,-0.01364 -0.13639,-0.02046 -0.19777,-0.05456 -0.0546,-0.04092 -0.0409,-0.102299 0.0136,-0.06138 0.0955,-0.156858 l 1.32988,-1.459461 q 0.075,-0.08866 0.16368,-0.143218 0.0887,-0.05456 0.20459,-0.08184 0.12276,-0.0341 0.28644,-0.04092 0.16368,-0.01364 0.38873,-0.01364 z m -3.16443,2.693865 z" />
          <path
             id="path1628"
             style="font-style:normal;font-variant:normal;font-weight:bold;font-stretch:normal;font-size:13.96717644px;font-family:Calibri;-inkscape-font-specification:'Calibri, Bold';font-variant-ligatures:normal;font-variant-caps:normal;font-variant-numeric:normal;font-feature-settings:normal;text-align:start;writing-mode:lr-tb;text-anchor:start;fill:#dd8a43;fill-opacity:1;stroke-width:0.58195704"
             d="m 170.04299,58.153989 q 0,0.0682 -0.0409,0.122758 -0.0341,0.05456 -0.13639,0.08866 -0.0955,0.0341 -0.25916,0.05456 -0.16368,0.02046 -0.41602,0.02046 -0.24551,0 -0.40919,-0.02046 -0.16368,-0.02046 -0.25916,-0.05456 -0.0955,-0.0341 -0.1364,-0.08866 -0.0409,-0.05456 -0.0409,-0.122758 v -7.181366 h -0.0136 l -2.55747,7.174546 q -0.0273,0.08866 -0.0887,0.150038 -0.0614,0.05456 -0.1705,0.08866 -0.1023,0.0341 -0.26597,0.04092 -0.16368,0.01364 -0.39556,0.01364 -0.23188,0 -0.39555,-0.02046 -0.16368,-0.01364 -0.2728,-0.04774 -0.1023,-0.04092 -0.16368,-0.09548 -0.0614,-0.05456 -0.0818,-0.129578 l -2.4688,-7.174546 h -0.0136 v 7.181366 q 0,0.0682 -0.0409,0.122758 -0.0341,0.05456 -0.1364,0.08866 -0.1023,0.0341 -0.26598,0.05456 -0.15686,0.02046 -0.40919,0.02046 -0.24552,0 -0.4092,-0.02046 -0.16368,-0.02046 -0.26597,-0.05456 -0.0955,-0.0341 -0.1364,-0.08866 -0.0341,-0.05456 -0.0341,-0.122758 v -7.863357 q 0,-0.347815 0.18414,-0.531953 0.18413,-0.184137 0.49103,-0.184137 h 1.17302 q 0.31372,0 0.53878,0.05456 0.22505,0.04774 0.38873,0.170498 0.16368,0.115938 0.2728,0.313716 0.10912,0.190957 0.19096,0.477393 l 1.90957,5.258151 h 0.0273 l 1.97777,-5.244511 q 0.0887,-0.286436 0.19096,-0.484214 0.10912,-0.197777 0.24552,-0.320535 0.14322,-0.122759 0.33417,-0.170498 0.19096,-0.05456 0.4433,-0.05456 h 1.20712 q 0.18414,0 0.31372,0.04774 0.1364,0.04774 0.21824,0.143218 0.0887,0.08866 0.12957,0.225057 0.0477,0.129578 0.0477,0.300076 z" />
          <path
             id="path1630"
             style="font-style:normal;font-variant:normal;font-weight:bold;font-stretch:normal;font-size:13.96717644px;font-family:Calibri;-inkscape-font-specification:'Calibri, Bold';font-variant-ligatures:normal;font-variant-caps:normal;font-variant-numeric:normal;font-feature-settings:normal;text-align:start;writing-mode:lr-tb;text-anchor:start;fill:#dd8a43;fill-opacity:1;stroke-width:0.58195704"
             d="m 173.78031,58.153989 q 0,0.0682 -0.0477,0.122758 -0.0409,0.05456 -0.14322,0.08866 -0.1023,0.0341 -0.2728,0.05456 -0.1705,0.02046 -0.43647,0.02046 -0.25916,0 -0.43648,-0.02046 -0.17049,-0.02046 -0.27279,-0.05456 -0.1023,-0.0341 -0.15004,-0.08866 -0.0409,-0.05456 -0.0409,-0.122758 v -8.333931 q 0,-0.0682 0.0409,-0.122758 0.0477,-0.05456 0.15004,-0.08866 0.10912,-0.0341 0.27961,-0.05456 0.1705,-0.02046 0.42966,-0.02046 0.26597,0 0.43647,0.02046 0.1705,0.02046 0.2728,0.05456 0.1023,0.0341 0.14322,0.08866 0.0477,0.05456 0.0477,0.122758 z" />
          <path
             id="path1632"
             style="font-style:normal;font-variant:normal;font-weight:bold;font-stretch:normal;font-size:13.96717644px;font-family:Calibri;-inkscape-font-specification:'Calibri, Bold';font-variant-ligatures:normal;font-variant-caps:normal;font-variant-numeric:normal;font-feature-settings:normal;text-align:start;writing-mode:lr-tb;text-anchor:start;fill:#dd8a43;fill-opacity:1;stroke-width:0.58195704"
             d="m 181.82098,57.062803 q 0,0.170498 -0.0136,0.293256 -0.007,0.115939 -0.0273,0.204598 -0.0205,0.08184 -0.0546,0.143218 -0.0341,0.06138 -0.10912,0.143218 -0.075,0.07502 -0.29326,0.197777 -0.21141,0.122759 -0.52513,0.238697 -0.30689,0.109119 -0.70927,0.184138 -0.39555,0.07502 -0.85931,0.07502 -0.90705,0 -1.63678,-0.279617 -0.72973,-0.279616 -1.24122,-0.832029 -0.51149,-0.559232 -0.78429,-1.391261 -0.2728,-0.832029 -0.2728,-1.936855 0,-1.125285 0.30008,-1.998234 0.30008,-0.872948 0.83885,-1.46628 0.53877,-0.593333 1.28896,-0.900229 0.75701,-0.306896 1.66406,-0.306896 0.36827,0 0.70927,0.06138 0.341,0.06138 0.62743,0.163678 0.29326,0.09548 0.52514,0.225057 0.23187,0.129578 0.32053,0.225057 0.0955,0.08866 0.12958,0.150038 0.0341,0.06138 0.0546,0.156858 0.0205,0.09548 0.0273,0.225057 0.0136,0.129578 0.0136,0.320535 0,0.204598 -0.0136,0.347816 -0.0136,0.143218 -0.0477,0.231877 -0.0341,0.08866 -0.0818,0.129578 -0.0477,0.04092 -0.10912,0.04092 -0.1023,0 -0.25916,-0.115939 -0.15685,-0.122758 -0.40919,-0.265976 -0.24552,-0.150038 -0.59333,-0.265977 -0.341,-0.122758 -0.81839,-0.122758 -0.52513,0 -0.94115,0.218237 -0.40919,0.211417 -0.70245,0.613792 -0.28644,0.395555 -0.43647,0.961607 -0.15004,0.566053 -0.15004,1.275323 0,0.77747 0.15686,1.350343 0.16367,0.566052 0.45693,0.934327 0.30008,0.368275 0.71609,0.552413 0.42283,0.177318 0.94797,0.177318 0.47739,0 0.82521,-0.109119 0.34781,-0.115938 0.59333,-0.252337 0.25234,-0.136398 0.40919,-0.245516 0.16368,-0.109119 0.25234,-0.109119 0.0682,0 0.10912,0.02728 0.0409,0.02728 0.0682,0.109118 0.0273,0.08184 0.0409,0.231877 0.0136,0.143218 0.0136,0.388735 z" />
          <path
             id="path1634"
             style="font-style:normal;font-variant:normal;font-weight:bold;font-stretch:normal;font-size:13.96717644px;font-family:Calibri;-inkscape-font-specification:'Calibri, Bold';font-variant-ligatures:normal;font-variant-caps:normal;font-variant-numeric:normal;font-feature-settings:normal;text-align:start;writing-mode:lr-tb;text-anchor:start;fill:#dd8a43;fill-opacity:1;stroke-width:0.58195704"
             d="m 190.33905,57.731154 q 0.0818,0.245517 0.1023,0.388735 0.0205,0.143218 -0.0546,0.218237 -0.075,0.0682 -0.26598,0.08184 -0.19096,0.02046 -0.52513,0.02046 -0.34782,0 -0.5456,-0.01364 -0.19095,-0.0068 -0.29325,-0.0341 -0.1023,-0.0341 -0.14322,-0.08866 -0.0409,-0.05456 -0.0682,-0.143218 l -0.59333,-1.773177 h -3.31448 l -0.55923,1.725437 q -0.0273,0.09548 -0.075,0.163678 -0.0409,0.06138 -0.14322,0.102299 -0.0955,0.0341 -0.27961,0.04774 -0.17732,0.01364 -0.47058,0.01364 -0.31371,0 -0.49103,-0.02046 -0.17732,-0.02046 -0.24552,-0.09548 -0.0682,-0.08184 -0.0477,-0.225057 0.0205,-0.143219 0.1023,-0.381915 l 2.72115,-7.829258 q 0.0409,-0.115938 0.0955,-0.184137 0.0546,-0.07502 0.1705,-0.109119 0.12276,-0.04092 0.33418,-0.04774 0.21141,-0.01364 0.55923,-0.01364 0.40237,0 0.64107,0.01364 0.2387,0.0068 0.36828,0.04774 0.13639,0.0341 0.19095,0.109119 0.0614,0.07502 0.1023,0.204597 z m -4.05103,-6.472095 h -0.007 l -1.24804,3.750951 h 2.5029 z" />
        </g>
      </g>
    </g>
  </g>
</svg>
