<?xml version="1.0" encoding="UTF-8" standalone="no"?>
<!-- Created with Inkscape (http://www.inkscape.org/) -->

<svg
   xmlns:dc="http://purl.org/dc/elements/1.1/"
   xmlns:cc="http://creativecommons.org/ns#"
   xmlns:rdf="http://www.w3.org/1999/02/22-rdf-syntax-ns#"
   xmlns:svg="http://www.w3.org/2000/svg"
   xmlns="http://www.w3.org/2000/svg"
   xmlns:sodipodi="http://sodipodi.sourceforge.net/DTD/sodipodi-0.dtd"
   xmlns:inkscape="http://www.inkscape.org/namespaces/inkscape"
   viewBox="0 0 26.45437 26.460391"
   preserveAspectRatio="xMaxYMax meet"
   version="1.1"
   id="svg8"
   inkscape:version="0.92.4 (5da689c313, 2019-01-14)"
   sodipodi:docname="Logo_reduzido_v2.svg">
  <defs
     id="defs2" />
  <sodipodi:namedview
     id="base"
     pagecolor="#ffffff"
     bordercolor="#666666"
     borderopacity="1.0"
     inkscape:pageopacity="0.0"
     inkscape:pageshadow="2"
     inkscape:zoom="2.8284271"
     inkscape:cx="26.232118"
     inkscape:cy="54.428283"
     inkscape:document-units="px"
     inkscape:current-layer="layer2"
     showgrid="false"
     inkscape:window-width="1920"
     inkscape:window-height="1017"
     inkscape:window-x="-8"
     inkscape:window-y="-8"
     inkscape:window-maximized="1"
     showborder="false"
     fit-margin-top="0"
     fit-margin-left="0"
     fit-margin-right="0"
     fit-margin-bottom="0"
     units="px" />
  <metadata
     id="metadata5">
    <rdf:RDF>
      <cc:Work
         rdf:about="">
        <dc:format>image/svg+xml</dc:format>
        <dc:type
           rdf:resource="http://purl.org/dc/dcmitype/StillImage" />
        <dc:title></dc:title>
      </cc:Work>
    </rdf:RDF>
  </metadata>
  <g
     inkscape:label="Layer 1"
     inkscape:groupmode="layer"
     id="layer1"
     transform="translate(-59.640663,-29.23344)" />
  <g
     inkscape:groupmode="layer"
     id="layer2"
     inkscape:label="Layer_2"
     transform="translate(-59.640663,-29.23344)">
    <g
       id="g892"
       transform="translate(-1.8520833,-34.528125)">
      <g
         id="g869" />
    </g>
    <g
       id="g1550"
       transform="matrix(0.83033577,0,0,0.84085882,12.363018,6.7585764)">
      <g
         transform="translate(8.795039,4.469907)"
         id="g944">
        <path
           style="fill:none;stroke:#dd8a43;stroke-width:0.28872302px;stroke-linecap:butt;stroke-linejoin:miter;stroke-opacity:1"
           d="m 57.866009,27.738661 c 0.195384,4.324285 -1.835649,6.772919 -5.748561,7.855191"
           id="path861"
           inkscape:connector-curvature="0"
           sodipodi:nodetypes="cc" />
        <ellipse
           style="opacity:1;fill:#dd8a43;fill-opacity:1;stroke:#dd8a43;stroke-width:0.73296499;stroke-linecap:butt;stroke-miterlimit:4;stroke-dasharray:none;stroke-dashoffset:0;stroke-opacity:1"
           id="path863"
           cx="52.715866"
           cy="39.952564"
           rx="4.2064381"
           ry="4.2654963" />
        <path
           style="fill:none;stroke:#dd8a43;stroke-width:0.26458332px;stroke-linecap:butt;stroke-linejoin:miter;stroke-opacity:1"
           d="m 62.531436,31.211866 c -3.415603,0.961378 -6.002572,3.607934 -5.480655,8.268229"
           id="path865"
           inkscape:connector-curvature="0"
           sodipodi:nodetypes="cc" />
        <ellipse
           style="opacity:1;fill:#dd8a43;fill-opacity:1;stroke:none;stroke-width:0.57976681;stroke-linecap:butt;stroke-miterlimit:4;stroke-dasharray:none;stroke-dashoffset:0;stroke-opacity:1"
           id="path853"
           cx="62.2952"
           cy="26.841516"
           rx="4.7483253"
           ry="4.5829611" />
        <ellipse
           style="opacity:1;fill:#dd8a43;fill-opacity:1;stroke:none;stroke-width:0.66499996;stroke-linecap:butt;stroke-miterlimit:4;stroke-dasharray:none;stroke-dashoffset:0;stroke-opacity:1"
           id="path855"
           cx="65.791481"
           cy="29.227491"
           rx="0.30710566"
           ry="0.63783485" />
        <ellipse
           style="opacity:1;fill:#dd8a43;fill-opacity:1;stroke:#dd8a43;stroke-width:0.77831781;stroke-linecap:butt;stroke-miterlimit:4;stroke-dasharray:none;stroke-dashoffset:0;stroke-opacity:1"
           id="path867"
           cx="66.110405"
           cy="49.3311"
           rx="4.1365147"
           ry="4.0065851" />
        <ellipse
           style="opacity:1;fill:#dd8a43;fill-opacity:1;stroke:#dd8a43;stroke-width:0.77831787;stroke-linecap:butt;stroke-miterlimit:4;stroke-dasharray:none;stroke-dashoffset:0;stroke-opacity:1"
           id="path867-6"
           cx="75.477119"
           cy="35.936569"
           rx="4.1365147"
           ry="4.0065851" />
        <path
           style="fill:none;stroke:#dd8a43;stroke-width:0.26458332px;stroke-linecap:butt;stroke-linejoin:miter;stroke-opacity:1"
           d="m 53.85481,44.263251 c 3.529354,-0.0712 6.422019,1.373519 8.084902,5.746295"
           id="path884"
           inkscape:connector-curvature="0"
           sodipodi:nodetypes="cc" />
        <path
           style="fill:none;stroke:#dd8a43;stroke-width:0.27015686px;stroke-linecap:butt;stroke-linejoin:miter;stroke-opacity:1"
           d="m 57.050781,39.480095 c 1.07904,3.979258 4.626678,6.052582 8.762668,5.595824"
           id="path886"
           inkscape:connector-curvature="0"
           sodipodi:nodetypes="cc" />
        <path
           style="fill:none;stroke:#dd8a43;stroke-width:0.26458332px;stroke-linecap:butt;stroke-linejoin:miter;stroke-opacity:1"
           d="m 65.813449,45.075919 c 4.803302,-1.335062 6.188462,-4.994401 5.580923,-8.262805"
           id="path888"
           inkscape:connector-curvature="0"
           sodipodi:nodetypes="cc" />
        <path
           style="fill:none;stroke:#dd8a43;stroke-width:0.26811376px;stroke-linecap:butt;stroke-linejoin:miter;stroke-opacity:1"
           d="m 70.508308,49.115012 c -0.915183,-5.799359 3.740141,-8.512858 6.228102,-9.064319"
           id="path890"
           inkscape:connector-curvature="0"
           sodipodi:nodetypes="cc" />
        <path
           style="opacity:1;fill:#dd8a43;fill-opacity:1;stroke:#dd8a43;stroke-width:0.80503941;stroke-linecap:butt;stroke-miterlimit:4;stroke-dasharray:none;stroke-dashoffset:0;stroke-opacity:1"
           d="m 214.56729,142.85136 c -0.79686,-1.80035 -3.28551,-4.70764 -5.22533,-6.10431 -1.91427,-1.37829 -4.36629,-2.47487 -6.53618,-2.92307 -0.54207,-0.11197 -1.00269,-0.22069 -1.02361,-0.24161 -0.0209,-0.0209 0.23313,-0.13927 0.56455,-0.26298 0.98906,-0.36919 3.67759,-1.73975 4.91476,-2.50545 6.25548,-3.87157 10.15687,-9.68994 11.52872,-17.19345 0.13147,-0.71912 0.50716,-3.83276 0.50974,-4.22474 6.3e-4,-0.10127 0.28067,0.26807 0.62223,0.82075 2.2443,3.63156 5.79239,6.41396 9.79619,7.68215 0.91179,0.28881 1.29777,0.38807 2.52089,0.64825 0.35351,0.0752 0.32191,0.10257 -0.56821,0.49234 -2.87324,1.25816 -5.46681,2.84807 -7.71176,4.72748 -3.53578,2.96005 -6.19255,6.93451 -7.69313,11.50871 -0.73058,2.22701 -1.15444,4.55033 -1.41668,7.76533 -0.0303,0.37114 -0.0357,0.36751 -0.28218,-0.1894 z"
           id="path909"
           inkscape:connector-curvature="0"
           transform="scale(0.26458333)" />
        <path
           style="opacity:1;fill:#dd8a43;fill-opacity:1;stroke:#dd8a43;stroke-width:1.23590553;stroke-linecap:butt;stroke-miterlimit:4;stroke-dasharray:none;stroke-dashoffset:0;stroke-opacity:1"
           d="m 232.1651,183.36094 c -3.88416,-7.48831 -9.55998,-12.60201 -16.57877,-14.93686 -2.38588,-0.79368 -5.15318,-1.35695 -7.50267,-1.52714 l -1.21113,-0.0877 1.02363,-0.61514 c 4.39174,-2.63915 7.55131,-7.13288 8.34516,-11.86903 l 0.16005,-0.95481 0.9484,1.89231 c 1.50849,3.00981 2.88052,4.94259 5.18986,7.31092 3.71606,3.81098 7.89924,6.28078 13.25517,7.82603 1.39652,0.40291 4.07851,0.90707 5.42091,1.01902 l 1.01081,0.0843 -0.92635,0.5279 c -1.43181,0.81595 -2.53671,1.6484 -3.64364,2.74517 -2.39918,2.37715 -3.92853,5.18879 -4.59895,8.45496 l -0.27217,1.326 z"
           id="path911"
           inkscape:connector-curvature="0"
           transform="scale(0.26458333)" />
        <path
           style="opacity:1;fill:#dd8a43;fill-opacity:1;stroke:#dd8a43;stroke-width:1.99559057;stroke-linecap:butt;stroke-miterlimit:4;stroke-dasharray:none;stroke-dashoffset:0;stroke-opacity:1"
           d="m 265.16985,178.93022 c -0.87924,-1.84816 -2.85149,-4.16098 -4.79958,-5.62839 -2.24212,-1.68889 -4.39951,-2.61841 -7.63295,-3.28868 -0.24981,-0.0518 0.055,-0.25066 1.625,-1.06039 3.34161,-1.72118 5.29026,-1.95593 8.81345,-6.29605 4.21025,-5.18649 7.31832,-10.47329 7.71238,-17.1642 l 0.0317,-0.53734 0.55376,0.76237 c 0.30457,0.4193 1.09866,1.28537 1.76464,1.92459 2.90047,2.78394 6.47207,4.40461 10.51397,4.77087 l 0.94721,0.0858 -1.95229,0.97693 c -10.04442,5.02625 -16.28694,13.79489 -17.13836,24.07362 -0.0788,0.95175 -0.1536,1.77 -0.16613,1.81833 -0.0125,0.0483 -0.13528,-0.14853 -0.27275,-0.4375 z"
           id="path913"
           inkscape:connector-curvature="0"
           transform="scale(0.26458333)"
           sodipodi:nodetypes="csccsccccccscccc" />
      </g>
      <ellipse
         style="opacity:1;fill:#1f5581;fill-opacity:1;stroke:none;stroke-width:0.33643049;stroke-linecap:butt;stroke-miterlimit:4;stroke-dasharray:none;stroke-dashoffset:0;stroke-opacity:1"
         id="path946"
         cx="73.111"
         cy="38.921925"
         rx="1.7363281"
         ry="1.6453776" />
      <path
         sodipodi:nodetypes="cc"
         inkscape:connector-curvature="0"
         id="path894"
         d="m 80.019857,41.382412 c 0.11645,0.838948 0.46086,1.831445 0.0947,2.873424"
         style="fill:none;stroke:#dd8a43;stroke-width:0.26458332px;stroke-linecap:butt;stroke-linejoin:miter;stroke-opacity:1" />
    </g>
  </g>
</svg>
