<?xml version="1.0" encoding="UTF-8" standalone="no"?>
<!-- Created with Inkscape (http://www.inkscape.org/) -->

<svg
   xmlns:dc="http://purl.org/dc/elements/1.1/"
   xmlns:cc="http://creativecommons.org/ns#"
   xmlns:rdf="http://www.w3.org/1999/02/22-rdf-syntax-ns#"
   xmlns:svg="http://www.w3.org/2000/svg"
   xmlns="http://www.w3.org/2000/svg"
   xmlns:sodipodi="http://sodipodi.sourceforge.net/DTD/sodipodi-0.dtd"
   xmlns:inkscape="http://www.inkscape.org/namespaces/inkscape"
   viewBox="0 0 94.375001 35.249999"
   preserveAspectRatio="xMaxYMax meet"
   version="1.1"
   id="svg8"
   inkscape:version="0.92.4 (5da689c313, 2019-01-14)"
   sodipodi:docname="Logo_V4.svg"
   width="94.375"
   height="35.25">
  <defs
     id="defs2" />
  <sodipodi:namedview
     id="base"
     pagecolor="#ffffff"
     bordercolor="#666666"
     borderopacity="1.0"
     inkscape:pageopacity="0.0"
     inkscape:pageshadow="2"
     inkscape:zoom="11.313708"
     inkscape:cx="46.140689"
     inkscape:cy="12.006018"
     inkscape:document-units="px"
     inkscape:current-layer="layer2"
     showgrid="false"
     inkscape:window-width="1920"
     inkscape:window-height="1017"
     inkscape:window-x="-8"
     inkscape:window-y="-8"
     inkscape:window-maximized="1"
     units="px"
     fit-margin-top="1"
     fit-margin-left="1"
     fit-margin-right="1"
     fit-margin-bottom="1" />
  <metadata
     id="metadata5">
    <rdf:RDF>
      <cc:Work
         rdf:about="">
        <dc:format>image/svg+xml</dc:format>
        <dc:type
           rdf:resource="http://purl.org/dc/dcmitype/StillImage" />
        <dc:title></dc:title>
      </cc:Work>
    </rdf:RDF>
  </metadata>
  <g
     inkscape:label="Layer 1"
     inkscape:groupmode="layer"
     id="layer1"
     transform="translate(-55.107297,-24.994293)" />
  <g
     inkscape:groupmode="layer"
     id="layer3"
     inkscape:label="Layer_3"
     transform="translate(0.77235413,0.67583656)">
    <rect
       style="opacity:1;fill:#f9fff0;fill-opacity:0.96744187;stroke:none;stroke-width:5.13401222;stroke-linecap:butt;stroke-miterlimit:4;stroke-dasharray:none;stroke-dashoffset:0;stroke-opacity:1"
       id="rect1490"
       width="92.375"
       height="33.25"
       x="0.22764587"
       y="0.32416344" />
  </g>
  <g
     inkscape:groupmode="layer"
     id="layer2"
     inkscape:label="Layer_2"
     transform="translate(-55.107297,-24.994293)">
    <g
       id="g892"
       transform="translate(-1.8520833,-34.528125)">
      <g
         id="g869" />
    </g>
    <g
       id="g1488"
       transform="translate(-1.8178284e-5)">
      <g
         id="text840"
         style="font-style:normal;font-variant:normal;font-weight:bold;font-stretch:normal;font-size:14.09961224px;line-height:1.25;font-family:'Handel Gothic D';-inkscape-font-specification:'Handel Gothic D, Bold';font-variant-ligatures:normal;font-variant-caps:normal;font-variant-numeric:normal;font-feature-settings:normal;text-align:start;letter-spacing:0px;word-spacing:0px;writing-mode:lr-tb;text-anchor:start;fill:#1f5581;fill-opacity:1;stroke:none;stroke-width:0.58748382"
         transform="scale(0.97360422,1.0271114)"
         aria-label="CERMAT">
        <path
           id="path1586"
           style="font-style:normal;font-variant:normal;font-weight:bold;font-stretch:normal;font-size:14.09961224px;font-family:'Handel Gothic D';-inkscape-font-specification:'Handel Gothic D, Bold';font-variant-ligatures:normal;font-variant-caps:normal;font-variant-numeric:normal;font-feature-settings:normal;text-align:start;writing-mode:lr-tb;text-anchor:start;fill:#1f5581;fill-opacity:1;stroke-width:0.58748382"
           d="m 102.48994,44.437518 h -2.876317 c -0.761379,0 -1.325363,-0.140996 -1.691953,-0.422989 -0.563985,-0.408888 -0.860077,-1.381762 -0.860077,-2.763524 0,-0.972873 0.169196,-1.720152 0.479387,-2.100842 0.408889,-0.507586 1.071571,-0.761379 2.002145,-0.761379 h 2.946815 V 36.71093 h -3.186508 c -0.916475,0 -1.847049,0.169196 -2.382835,0.422989 -1.325363,0.620383 -2.072643,2.18544 -2.072643,4.300381 0,1.677854 0.437088,2.975019 1.240766,3.750497 0.73318,0.704981 1.508659,0.930575 3.130114,0.930575 h 3.271106 z"
           inkscape:connector-curvature="0" />
        <path
           id="path1588"
           style="font-style:normal;font-variant:normal;font-weight:bold;font-stretch:normal;font-size:14.09961224px;font-family:'Handel Gothic D';-inkscape-font-specification:'Handel Gothic D, Bold';font-variant-ligatures:normal;font-variant-caps:normal;font-variant-numeric:normal;font-feature-settings:normal;text-align:start;writing-mode:lr-tb;text-anchor:start;fill:#1f5581;fill-opacity:1;stroke-width:0.58748382"
           d="m 110.96976,36.71093 h -3.38391 c -1.26896,0 -1.91754,0.197395 -2.58023,0.761379 -1.04337,0.888276 -1.59325,2.21364 -1.59325,3.877394 0,1.565057 0.43709,2.876321 1.24076,3.708198 0.74728,0.789578 1.70606,1.057471 3.7082,1.057471 h 2.60843 v -1.677854 h -2.52383 c -1.91755,0 -2.62253,-0.549885 -2.76353,-2.157241 h 5.28736 v -1.677854 h -5.28736 c 0.0705,-0.930574 0.1269,-1.142068 0.40889,-1.522758 0.40889,-0.535785 0.91648,-0.690881 2.27004,-0.690881 h 2.60843 z"
           inkscape:connector-curvature="0" />
        <path
           id="path1590"
           style="font-style:normal;font-variant:normal;font-weight:bold;font-stretch:normal;font-size:14.09961224px;font-family:'Handel Gothic D';-inkscape-font-specification:'Handel Gothic D, Bold';font-variant-ligatures:normal;font-variant-caps:normal;font-variant-numeric:normal;font-feature-settings:normal;text-align:start;writing-mode:lr-tb;text-anchor:start;fill:#1f5581;fill-opacity:1;stroke-width:0.58748382"
           d="m 114.54159,42.54817 h 1.60735 c 1.77655,0 2.36874,0.521685 2.55203,2.227739 0.0141,0.183295 0.0564,0.578084 0.0846,0.831877 0.0282,0.211494 0.0423,0.296092 0.1128,0.507586 h 2.24184 c -0.1269,-0.352491 -0.1551,-0.549885 -0.2256,-1.424061 -0.0705,-1.46636 -0.60628,-2.312337 -1.70605,-2.608428 1.21257,-0.422989 1.79065,-1.311264 1.79065,-2.749425 0,-0.860076 -0.38069,-1.621455 -1.04337,-2.072643 -0.56399,-0.394789 -1.39586,-0.549885 -2.81992,-0.549885 h -4.59648 v 9.404442 h 2.00215 z m 0,-1.677854 v -2.481532 h 2.80582 c 0.33839,0 0.59218,0.0282 0.74728,0.0705 0.43709,0.155096 0.69088,0.549885 0.69088,1.11387 0,0.916474 -0.40889,1.297164 -1.43816,1.297164 z"
           inkscape:connector-curvature="0" />
        <path
           id="path1592"
           style="font-style:normal;font-variant:normal;font-weight:bold;font-stretch:normal;font-size:14.09961224px;font-family:'Handel Gothic D';-inkscape-font-specification:'Handel Gothic D, Bold';font-variant-ligatures:normal;font-variant-caps:normal;font-variant-numeric:normal;font-feature-settings:normal;text-align:start;writing-mode:lr-tb;text-anchor:start;fill:#1f5581;fill-opacity:1;stroke-width:0.58748382"
           d="m 125.52298,36.71093 h -2.93272 v 9.404442 h 1.90345 v -7.063906 l 2.32644,7.063906 h 2.05854 l 2.46743,-7.063906 v 7.063906 h 1.90345 V 36.71093 h -2.91862 l -2.46743,7.345898 z"
           inkscape:connector-curvature="0" />
        <path
           id="path1594"
           style="font-style:normal;font-variant:normal;font-weight:bold;font-stretch:normal;font-size:14.09961224px;font-family:'Handel Gothic D';-inkscape-font-specification:'Handel Gothic D, Bold';font-variant-ligatures:normal;font-variant-caps:normal;font-variant-numeric:normal;font-feature-settings:normal;text-align:start;writing-mode:lr-tb;text-anchor:start;fill:#1f5581;fill-opacity:1;stroke-width:0.58748382"
           d="m 134.27355,46.115372 h 2.35464 l 0.90237,-2.18544 h 3.58131 l 0.90237,2.18544 h 2.34054 l -3.8915,-9.404442 h -2.29823 z m 5.04767,-7.148504 1.33946,3.28521 h -2.67893 z"
           inkscape:connector-curvature="0" />
        <path
           id="path1596"
           style="font-style:normal;font-variant:normal;font-weight:bold;font-stretch:normal;font-size:14.09961224px;font-family:'Handel Gothic D';-inkscape-font-specification:'Handel Gothic D, Bold';font-variant-ligatures:normal;font-variant-caps:normal;font-variant-numeric:normal;font-feature-settings:normal;text-align:start;writing-mode:lr-tb;text-anchor:start;fill:#1f5581;fill-opacity:1;stroke-width:0.58748382"
           d="m 146.37851,38.388784 v 7.726588 h 2.00215 v -7.726588 h 3.10191 V 36.71093 h -8.10727 v 1.677854 z"
           inkscape:connector-curvature="0" />
      </g>
      <g
         id="text844"
         style="font-style:normal;font-variant:normal;font-weight:bold;font-stretch:normal;font-size:6.9835887px;line-height:1.25;font-family:Calibri;-inkscape-font-specification:'Calibri, Bold';font-variant-ligatures:normal;font-variant-caps:normal;font-variant-numeric:normal;font-feature-settings:normal;text-align:start;letter-spacing:0px;word-spacing:0px;writing-mode:lr-tb;text-anchor:start;fill:#dd8a43;fill-opacity:1;stroke:none;stroke-width:0.29097852"
         transform="scale(0.92497055,1.0811155)"
         aria-label="CERÂMICA">
        <path
           id="path1599"
           style="font-style:normal;font-variant:normal;font-weight:bold;font-stretch:normal;font-size:6.9835887px;font-family:Calibri;-inkscape-font-specification:'Calibri, Bold';font-variant-ligatures:normal;font-variant-caps:normal;font-variant-numeric:normal;font-feature-settings:normal;text-align:start;writing-mode:lr-tb;text-anchor:start;fill:#dd8a43;fill-opacity:1;stroke-width:0.29097852"
           d="m 131.89268,50.084247 q 0,0.08525 -0.007,0.146628 -0.003,0.05797 -0.0136,0.102298 -0.0102,0.04092 -0.0273,0.07161 -0.0171,0.03069 -0.0546,0.07161 -0.0375,0.03751 -0.14663,0.09889 -0.10571,0.06138 -0.26257,0.119349 -0.15345,0.05456 -0.35463,0.09207 -0.19778,0.03751 -0.42966,0.03751 -0.45352,0 -0.81839,-0.139808 -0.36486,-0.139808 -0.62061,-0.416015 -0.25575,-0.279616 -0.39215,-0.695631 -0.13639,-0.416014 -0.13639,-0.968427 0,-0.562643 0.15003,-0.999117 0.15004,-0.436474 0.41943,-0.73314 0.26939,-0.296667 0.64448,-0.450115 0.37851,-0.153448 0.83203,-0.153448 0.18414,0 0.35464,0.03069 0.17049,0.03069 0.31371,0.08184 0.14663,0.04774 0.26257,0.112528 0.11594,0.06479 0.16027,0.112529 0.0477,0.04433 0.0648,0.07502 0.0171,0.03069 0.0273,0.07843 0.0102,0.04774 0.0136,0.112529 0.007,0.06479 0.007,0.160267 0,0.102299 -0.007,0.173908 -0.007,0.07161 -0.0239,0.115939 -0.0171,0.04433 -0.0409,0.06479 -0.0239,0.02046 -0.0546,0.02046 -0.0512,0 -0.12958,-0.05797 -0.0784,-0.06138 -0.2046,-0.132988 -0.12276,-0.07502 -0.29667,-0.132988 -0.17049,-0.06138 -0.40919,-0.06138 -0.26257,0 -0.47057,0.109118 -0.2046,0.105709 -0.35123,0.306896 -0.14322,0.197778 -0.21824,0.480804 -0.075,0.283026 -0.075,0.637662 0,0.388734 0.0784,0.675171 0.0818,0.283026 0.22847,0.467164 0.15004,0.184137 0.35805,0.276206 0.21141,0.08866 0.47398,0.08866 0.2387,0 0.4126,-0.05456 0.17391,-0.05797 0.29667,-0.126169 0.12617,-0.0682 0.2046,-0.122758 0.0818,-0.05456 0.12617,-0.05456 0.0341,0 0.0546,0.01364 0.0205,0.01364 0.0341,0.05456 0.0136,0.04092 0.0205,0.115938 0.007,0.07161 0.007,0.194368 z"
           inkscape:connector-curvature="0" />
        <path
           id="path1601"
           style="font-style:normal;font-variant:normal;font-weight:bold;font-stretch:normal;font-size:6.9835887px;font-family:Calibri;-inkscape-font-specification:'Calibri, Bold';font-variant-ligatures:normal;font-variant-caps:normal;font-variant-numeric:normal;font-feature-settings:normal;text-align:start;writing-mode:lr-tb;text-anchor:start;fill:#dd8a43;fill-opacity:1;stroke-width:0.29097852"
           d="m 135.1526,50.401372 q 0,0.09889 -0.0102,0.167088 -0.007,0.06479 -0.0239,0.105709 -0.0171,0.04092 -0.0443,0.06138 -0.0239,0.01705 -0.0546,0.01705 h -2.21647 q -0.11253,0 -0.19096,-0.06479 -0.075,-0.0682 -0.075,-0.218237 v -3.84643 q 0,-0.150038 0.075,-0.214827 0.0784,-0.0682 0.19096,-0.0682 h 2.20283 q 0.0307,0 0.0546,0.01705 0.0239,0.01705 0.0409,0.06138 0.0171,0.04092 0.0239,0.109119 0.0102,0.06479 0.0102,0.167088 0,0.09548 -0.0102,0.163678 -0.007,0.06479 -0.0239,0.105708 -0.0171,0.04092 -0.0409,0.06138 -0.0239,0.01705 -0.0546,0.01705 h -1.5754 v 1.077546 h 1.3333 q 0.0307,0 0.0546,0.02046 0.0273,0.01705 0.0443,0.05797 0.017,0.03751 0.0239,0.105709 0.0102,0.06479 0.0102,0.160268 0,0.09889 -0.0102,0.163678 -0.007,0.06479 -0.0239,0.105708 -0.017,0.03751 -0.0443,0.05456 -0.0239,0.01705 -0.0546,0.01705 h -1.3333 v 1.244634 h 1.58904 q 0.0307,0 0.0546,0.02046 0.0273,0.01705 0.0443,0.05797 0.017,0.04092 0.0239,0.109119 0.0102,0.06479 0.0102,0.163677 z"
           inkscape:connector-curvature="0" />
        <path
           id="path1603"
           style="font-style:normal;font-variant:normal;font-weight:bold;font-stretch:normal;font-size:6.9835887px;font-family:Calibri;-inkscape-font-specification:'Calibri, Bold';font-variant-ligatures:normal;font-variant-caps:normal;font-variant-numeric:normal;font-feature-settings:normal;text-align:start;writing-mode:lr-tb;text-anchor:start;fill:#dd8a43;fill-opacity:1;stroke-width:0.29097852"
           d="m 139.22068,50.636659 q 0,0.03751 -0.0136,0.06479 -0.0136,0.02387 -0.0648,0.04092 -0.0511,0.01705 -0.15004,0.02387 -0.0989,0.0068 -0.26939,0.0068 -0.14321,0 -0.22846,-0.0068 -0.0853,-0.0068 -0.1364,-0.02387 -0.0477,-0.02046 -0.0682,-0.04774 -0.0205,-0.03069 -0.0341,-0.07161 l -0.39555,-0.985478 q -0.0716,-0.167087 -0.13981,-0.296666 -0.0682,-0.129578 -0.15345,-0.214827 -0.0818,-0.08866 -0.19096,-0.132988 -0.10912,-0.04433 -0.25233,-0.04433 h -0.27962 v 1.681108 q 0,0.0341 -0.0239,0.06138 -0.0205,0.02728 -0.0716,0.04433 -0.0512,0.01705 -0.1364,0.02728 -0.0853,0.01023 -0.21823,0.01023 -0.12958,0 -0.21824,-0.01023 -0.0853,-0.01023 -0.1364,-0.02728 -0.0511,-0.01705 -0.0716,-0.04433 -0.0205,-0.02728 -0.0205,-0.06138 v -4.006697 q 0,-0.150038 0.075,-0.214827 0.0784,-0.0682 0.19096,-0.0682 h 1.14233 q 0.17391,0 0.28644,0.0068 0.11253,0.0068 0.2046,0.01705 0.26597,0.03751 0.47739,0.129578 0.21483,0.09207 0.36146,0.242107 0.15003,0.146628 0.22846,0.351226 0.0784,0.201187 0.0784,0.463754 0,0.221647 -0.058,0.405784 -0.0546,0.180728 -0.16368,0.323946 -0.10911,0.143218 -0.26938,0.248927 -0.16027,0.105708 -0.36487,0.170498 0.0989,0.04774 0.18414,0.115938 0.0887,0.0682 0.16368,0.167088 0.0784,0.09548 0.14663,0.221647 0.0682,0.122758 0.13298,0.279616 l 0.37169,0.869539 q 0.0511,0.129578 0.0682,0.190958 0.017,0.05797 0.017,0.09207 z m -1.15598,-2.993941 q 0,-0.218237 -0.0989,-0.368275 -0.0989,-0.150038 -0.32394,-0.211417 -0.0682,-0.01705 -0.15686,-0.02728 -0.0853,-0.01023 -0.2387,-0.01023 h -0.40237 v 1.251453 h 0.45693 q 0.19096,0 0.33418,-0.04433 0.14322,-0.04774 0.2387,-0.129579 0.0955,-0.08525 0.14321,-0.201187 0.0477,-0.115938 0.0477,-0.259157 z"
           inkscape:connector-curvature="0" />
        <path
           id="path1605"
           style="font-style:normal;font-variant:normal;font-weight:bold;font-stretch:normal;font-size:6.9835887px;font-family:Calibri;-inkscape-font-specification:'Calibri, Bold';font-variant-ligatures:normal;font-variant-caps:normal;font-variant-numeric:normal;font-feature-settings:normal;text-align:start;writing-mode:lr-tb;text-anchor:start;fill:#dd8a43;fill-opacity:1;stroke-width:0.29097852"
           d="m 143.48994,50.418422 q 0.0409,0.122759 0.0512,0.194368 0.0102,0.07161 -0.0273,0.109118 -0.0375,0.0341 -0.13299,0.04092 -0.0955,0.01023 -0.26256,0.01023 -0.17391,0 -0.2728,-0.0068 -0.0955,-0.0034 -0.14663,-0.01705 -0.0511,-0.01705 -0.0716,-0.04433 -0.0205,-0.02728 -0.0341,-0.07161 L 142.2965,49.74668 h -1.65724 l -0.27962,0.862719 q -0.0136,0.04774 -0.0375,0.08184 -0.0205,0.03069 -0.0716,0.05115 -0.0477,0.01705 -0.1398,0.02387 -0.0887,0.0068 -0.23529,0.0068 -0.15686,0 -0.24552,-0.01023 -0.0887,-0.01023 -0.12276,-0.04774 -0.0341,-0.04092 -0.0239,-0.112528 0.0102,-0.07161 0.0512,-0.190958 l 1.36058,-3.914629 q 0.0205,-0.05797 0.0477,-0.09207 0.0273,-0.03751 0.0852,-0.05456 0.0614,-0.02046 0.16709,-0.02387 0.10571,-0.0068 0.27962,-0.0068 0.20119,0 0.32053,0.0068 0.11935,0.0034 0.18414,0.02387 0.0682,0.01705 0.0955,0.05456 0.0307,0.03751 0.0511,0.102298 z m -2.02551,-3.236048 h -0.003 L 140.837,49.05785 h 1.25145 z m 0.0648,-2.189191 q 0.10912,0 0.18414,0.0034 0.075,0.0034 0.12616,0.02046 0.0512,0.01364 0.0921,0.04092 0.0409,0.02728 0.0853,0.07502 l 0.67517,0.729731 q 0.0443,0.04774 0.0511,0.08184 0.0102,0.03069 -0.0205,0.05115 -0.0273,0.01705 -0.0989,0.02387 -0.0716,0.0068 -0.19095,0.0068 -0.13981,0 -0.22847,-0.0034 -0.0887,-0.0068 -0.14322,-0.01705 -0.0512,-0.01364 -0.0818,-0.0341 -0.0273,-0.02046 -0.0546,-0.05115 l -0.40237,-0.467164 -0.41602,0.456934 q -0.0307,0.03751 -0.0614,0.05797 -0.0273,0.02046 -0.0818,0.0341 -0.0511,0.01364 -0.1364,0.02046 -0.0853,0.0034 -0.22847,0.0034 -0.11594,0 -0.18414,-0.0068 -0.0682,-0.01023 -0.0989,-0.02728 -0.0273,-0.02046 -0.0205,-0.05115 0.007,-0.03069 0.0477,-0.07843 l 0.66494,-0.729731 q 0.0375,-0.04433 0.0818,-0.07161 0.0443,-0.02728 0.1023,-0.04092 0.0614,-0.01705 0.14322,-0.02046 0.0818,-0.0068 0.19437,-0.0068 z m -1.58222,1.346932 z"
           inkscape:connector-curvature="0" />
        <path
           id="path1607"
           style="font-style:normal;font-variant:normal;font-weight:bold;font-stretch:normal;font-size:6.9835887px;font-family:Calibri;-inkscape-font-specification:'Calibri, Bold';font-variant-ligatures:normal;font-variant-caps:normal;font-variant-numeric:normal;font-feature-settings:normal;text-align:start;writing-mode:lr-tb;text-anchor:start;fill:#dd8a43;fill-opacity:1;stroke-width:0.29097852"
           d="m 149.24595,50.629839 q 0,0.0341 -0.0205,0.06138 -0.0171,0.02728 -0.0682,0.04433 -0.0477,0.01705 -0.12958,0.02728 -0.0818,0.01023 -0.20801,0.01023 -0.12276,0 -0.20459,-0.01023 -0.0818,-0.01023 -0.12958,-0.02728 -0.0477,-0.01705 -0.0682,-0.04433 -0.0205,-0.02728 -0.0205,-0.06138 v -3.590683 h -0.007 l -1.27874,3.587273 q -0.0136,0.04433 -0.0443,0.07502 -0.0307,0.02728 -0.0853,0.04433 -0.0512,0.01705 -0.13299,0.02046 -0.0818,0.0068 -0.19778,0.0068 -0.11594,0 -0.19778,-0.01023 -0.0818,-0.0068 -0.13639,-0.02387 -0.0512,-0.02046 -0.0818,-0.04774 -0.0307,-0.02728 -0.0409,-0.06479 l -1.23441,-3.587273 h -0.007 v 3.590683 q 0,0.0341 -0.0205,0.06138 -0.0171,0.02728 -0.0682,0.04433 -0.0512,0.01705 -0.13298,0.02728 -0.0784,0.01023 -0.2046,0.01023 -0.12276,0 -0.2046,-0.01023 -0.0818,-0.01023 -0.13299,-0.02728 -0.0477,-0.01705 -0.0682,-0.04433 -0.017,-0.02728 -0.017,-0.06138 v -3.931678 q 0,-0.173908 0.0921,-0.265977 0.0921,-0.09207 0.24552,-0.09207 h 0.58651 q 0.15686,0 0.26939,0.02728 0.11253,0.02387 0.19437,0.08525 0.0818,0.05797 0.13639,0.156858 0.0546,0.09548 0.0955,0.238697 l 0.95479,2.629075 h 0.0136 l 0.98889,-2.622255 q 0.0443,-0.143218 0.0955,-0.242107 0.0546,-0.09889 0.12275,-0.160268 0.0716,-0.06138 0.16709,-0.08525 0.0955,-0.02728 0.22165,-0.02728 h 0.60356 q 0.0921,0 0.15686,0.02387 0.0682,0.02387 0.10912,0.07161 0.0443,0.04433 0.0648,0.112529 0.0239,0.06479 0.0239,0.150038 z"
           inkscape:connector-curvature="0" />
        <path
           id="path1609"
           style="font-style:normal;font-variant:normal;font-weight:bold;font-stretch:normal;font-size:6.9835887px;font-family:Calibri;-inkscape-font-specification:'Calibri, Bold';font-variant-ligatures:normal;font-variant-caps:normal;font-variant-numeric:normal;font-feature-settings:normal;text-align:start;writing-mode:lr-tb;text-anchor:start;fill:#dd8a43;fill-opacity:1;stroke-width:0.29097852"
           d="m 151.1146,50.629839 q 0,0.0341 -0.0239,0.06138 -0.0205,0.02728 -0.0716,0.04433 -0.0511,0.01705 -0.13639,0.02728 -0.0853,0.01023 -0.21824,0.01023 -0.12958,0 -0.21824,-0.01023 -0.0853,-0.01023 -0.1364,-0.02728 -0.0512,-0.01705 -0.075,-0.04433 -0.0205,-0.02728 -0.0205,-0.06138 v -4.166965 q 0,-0.0341 0.0205,-0.06138 0.0239,-0.02728 0.075,-0.04433 0.0546,-0.01705 0.13981,-0.02728 0.0853,-0.01023 0.21483,-0.01023 0.13299,0 0.21824,0.01023 0.0852,0.01023 0.13639,0.02728 0.0512,0.01705 0.0716,0.04433 0.0239,0.02728 0.0239,0.06138 z"
           inkscape:connector-curvature="0" />
        <path
           id="path1611"
           style="font-style:normal;font-variant:normal;font-weight:bold;font-stretch:normal;font-size:6.9835887px;font-family:Calibri;-inkscape-font-specification:'Calibri, Bold';font-variant-ligatures:normal;font-variant-caps:normal;font-variant-numeric:normal;font-feature-settings:normal;text-align:start;writing-mode:lr-tb;text-anchor:start;fill:#dd8a43;fill-opacity:1;stroke-width:0.29097852"
           d="m 155.13494,50.084247 q 0,0.08525 -0.007,0.146628 -0.003,0.05797 -0.0136,0.102298 -0.0102,0.04092 -0.0273,0.07161 -0.017,0.03069 -0.0546,0.07161 -0.0375,0.03751 -0.14663,0.09889 -0.10571,0.06138 -0.26256,0.119349 -0.15345,0.05456 -0.35464,0.09207 -0.19778,0.03751 -0.42965,0.03751 -0.45353,0 -0.81839,-0.139808 -0.36487,-0.139808 -0.62061,-0.416015 -0.25575,-0.279616 -0.39215,-0.695631 -0.1364,-0.416014 -0.1364,-0.968427 0,-0.562643 0.15004,-0.999117 0.15004,-0.436474 0.41943,-0.73314 0.26938,-0.296667 0.64448,-0.450115 0.3785,-0.153448 0.83203,-0.153448 0.18413,0 0.35463,0.03069 0.1705,0.03069 0.31372,0.08184 0.14663,0.04774 0.26256,0.112528 0.11594,0.06479 0.16027,0.112529 0.0477,0.04433 0.0648,0.07502 0.0171,0.03069 0.0273,0.07843 0.0102,0.04774 0.0136,0.112529 0.007,0.06479 0.007,0.160267 0,0.102299 -0.007,0.173908 -0.007,0.07161 -0.0239,0.115939 -0.0171,0.04433 -0.0409,0.06479 -0.0239,0.02046 -0.0546,0.02046 -0.0511,0 -0.12958,-0.05797 -0.0784,-0.06138 -0.20459,-0.132988 -0.12276,-0.07502 -0.29667,-0.132988 -0.1705,-0.06138 -0.40919,-0.06138 -0.26257,0 -0.47058,0.109118 -0.2046,0.105709 -0.35122,0.306896 -0.14322,0.197778 -0.21824,0.480804 -0.075,0.283026 -0.075,0.637662 0,0.388734 0.0784,0.675171 0.0818,0.283026 0.22847,0.467164 0.15003,0.184137 0.35804,0.276206 0.21142,0.08866 0.47399,0.08866 0.23869,0 0.4126,-0.05456 0.17391,-0.05797 0.29667,-0.126169 0.12616,-0.0682 0.20459,-0.122758 0.0818,-0.05456 0.12617,-0.05456 0.0341,0 0.0546,0.01364 0.0205,0.01364 0.0341,0.05456 0.0136,0.04092 0.0205,0.115938 0.007,0.07161 0.007,0.194368 z"
           inkscape:connector-curvature="0" />
        <path
           id="path1613"
           style="font-style:normal;font-variant:normal;font-weight:bold;font-stretch:normal;font-size:6.9835887px;font-family:Calibri;-inkscape-font-specification:'Calibri, Bold';font-variant-ligatures:normal;font-variant-caps:normal;font-variant-numeric:normal;font-feature-settings:normal;text-align:start;writing-mode:lr-tb;text-anchor:start;fill:#dd8a43;fill-opacity:1;stroke-width:0.29097852"
           d="m 159.39397,50.418422 q 0.0409,0.122759 0.0512,0.194368 0.0102,0.07161 -0.0273,0.109118 -0.0375,0.0341 -0.13298,0.04092 -0.0955,0.01023 -0.26257,0.01023 -0.17391,0 -0.2728,-0.0068 -0.0955,-0.0034 -0.14662,-0.01705 -0.0512,-0.01705 -0.0716,-0.04433 -0.0205,-0.02728 -0.0341,-0.07161 l -0.29667,-0.886588 h -1.65724 l -0.27961,0.862719 q -0.0136,0.04774 -0.0375,0.08184 -0.0205,0.03069 -0.0716,0.05115 -0.0477,0.01705 -0.13981,0.02387 -0.0887,0.0068 -0.23529,0.0068 -0.15686,0 -0.24551,-0.01023 -0.0887,-0.01023 -0.12276,-0.04774 -0.0341,-0.04092 -0.0239,-0.112528 0.0102,-0.07161 0.0512,-0.190958 l 1.36057,-3.914629 q 0.0205,-0.05797 0.0477,-0.09207 0.0273,-0.03751 0.0853,-0.05456 0.0614,-0.02046 0.16708,-0.02387 0.10571,-0.0068 0.27962,-0.0068 0.20119,0 0.32054,0.0068 0.11935,0.0034 0.18413,0.02387 0.0682,0.01705 0.0955,0.05456 0.0307,0.03751 0.0512,0.102298 z m -2.02551,-3.236048 h -0.003 l -0.62402,1.875476 h 1.25145 z"
           inkscape:connector-curvature="0" />
      </g>
      <g
         transform="translate(8.795039,4.469907)"
         id="g944">
        <path
           style="fill:none;stroke:#dd8a43;stroke-width:0.28872302px;stroke-linecap:butt;stroke-linejoin:miter;stroke-opacity:1"
           d="m 57.866009,27.738661 c 0.195384,4.324285 -1.835649,6.772919 -5.748561,7.855191"
           id="path861"
           inkscape:connector-curvature="0"
           sodipodi:nodetypes="cc" />
        <ellipse
           style="opacity:1;fill:#dd8a43;fill-opacity:1;stroke:#dd8a43;stroke-width:0.73296499;stroke-linecap:butt;stroke-miterlimit:4;stroke-dasharray:none;stroke-dashoffset:0;stroke-opacity:1"
           id="path863"
           cx="52.715866"
           cy="39.952564"
           rx="4.2064381"
           ry="4.2654963" />
        <path
           style="fill:none;stroke:#dd8a43;stroke-width:0.26458332px;stroke-linecap:butt;stroke-linejoin:miter;stroke-opacity:1"
           d="m 62.531436,31.211866 c -3.415603,0.961378 -6.002572,3.607934 -5.480655,8.268229"
           id="path865"
           inkscape:connector-curvature="0"
           sodipodi:nodetypes="cc" />
        <ellipse
           style="opacity:1;fill:#dd8a43;fill-opacity:1;stroke:none;stroke-width:0.57976681;stroke-linecap:butt;stroke-miterlimit:4;stroke-dasharray:none;stroke-dashoffset:0;stroke-opacity:1"
           id="path853"
           cx="62.2952"
           cy="26.841516"
           rx="4.7483253"
           ry="4.5829611" />
        <ellipse
           style="opacity:1;fill:#dd8a43;fill-opacity:1;stroke:none;stroke-width:0.66499996;stroke-linecap:butt;stroke-miterlimit:4;stroke-dasharray:none;stroke-dashoffset:0;stroke-opacity:1"
           id="path855"
           cx="65.791481"
           cy="29.227491"
           rx="0.30710566"
           ry="0.63783485" />
        <ellipse
           style="opacity:1;fill:#dd8a43;fill-opacity:1;stroke:#dd8a43;stroke-width:0.77831781;stroke-linecap:butt;stroke-miterlimit:4;stroke-dasharray:none;stroke-dashoffset:0;stroke-opacity:1"
           id="path867"
           cx="66.110405"
           cy="49.3311"
           rx="4.1365147"
           ry="4.0065851" />
        <ellipse
           style="opacity:1;fill:#dd8a43;fill-opacity:1;stroke:#dd8a43;stroke-width:0.77831787;stroke-linecap:butt;stroke-miterlimit:4;stroke-dasharray:none;stroke-dashoffset:0;stroke-opacity:1"
           id="path867-6"
           cx="75.477119"
           cy="35.936569"
           rx="4.1365147"
           ry="4.0065851" />
        <path
           style="fill:none;stroke:#dd8a43;stroke-width:0.26458332px;stroke-linecap:butt;stroke-linejoin:miter;stroke-opacity:1"
           d="m 53.85481,44.263251 c 3.529354,-0.0712 6.422019,1.373519 8.084902,5.746295"
           id="path884"
           inkscape:connector-curvature="0"
           sodipodi:nodetypes="cc" />
        <path
           style="fill:none;stroke:#dd8a43;stroke-width:0.27015686px;stroke-linecap:butt;stroke-linejoin:miter;stroke-opacity:1"
           d="m 57.050781,39.480095 c 1.07904,3.979258 4.626678,6.052582 8.762668,5.595824"
           id="path886"
           inkscape:connector-curvature="0"
           sodipodi:nodetypes="cc" />
        <path
           style="fill:none;stroke:#dd8a43;stroke-width:0.26458332px;stroke-linecap:butt;stroke-linejoin:miter;stroke-opacity:1"
           d="m 65.813449,45.075919 c 4.803302,-1.335062 6.188462,-4.994401 5.580923,-8.262805"
           id="path888"
           inkscape:connector-curvature="0"
           sodipodi:nodetypes="cc" />
        <path
           style="fill:none;stroke:#dd8a43;stroke-width:0.26811376px;stroke-linecap:butt;stroke-linejoin:miter;stroke-opacity:1"
           d="m 70.508308,49.115012 c -0.915183,-5.799359 3.740141,-8.512858 6.228102,-9.064319"
           id="path890"
           inkscape:connector-curvature="0"
           sodipodi:nodetypes="cc" />
        <path
           style="opacity:1;fill:#dd8a43;fill-opacity:1;stroke:#dd8a43;stroke-width:0.80503941;stroke-linecap:butt;stroke-miterlimit:4;stroke-dasharray:none;stroke-dashoffset:0;stroke-opacity:1"
           d="m 214.56729,142.85136 c -0.79686,-1.80035 -3.28551,-4.70764 -5.22533,-6.10431 -1.91427,-1.37829 -4.36629,-2.47487 -6.53618,-2.92307 -0.54207,-0.11197 -1.00269,-0.22069 -1.02361,-0.24161 -0.0209,-0.0209 0.23313,-0.13927 0.56455,-0.26298 0.98906,-0.36919 3.67759,-1.73975 4.91476,-2.50545 6.25548,-3.87157 10.15687,-9.68994 11.52872,-17.19345 0.13147,-0.71912 0.50716,-3.83276 0.50974,-4.22474 6.3e-4,-0.10127 0.28067,0.26807 0.62223,0.82075 2.2443,3.63156 5.79239,6.41396 9.79619,7.68215 0.91179,0.28881 1.29777,0.38807 2.52089,0.64825 0.35351,0.0752 0.32191,0.10257 -0.56821,0.49234 -2.87324,1.25816 -5.46681,2.84807 -7.71176,4.72748 -3.53578,2.96005 -6.19255,6.93451 -7.69313,11.50871 -0.73058,2.22701 -1.15444,4.55033 -1.41668,7.76533 -0.0303,0.37114 -0.0357,0.36751 -0.28218,-0.1894 z"
           id="path909"
           inkscape:connector-curvature="0"
           transform="scale(0.26458333)" />
        <path
           style="opacity:1;fill:#dd8a43;fill-opacity:1;stroke:#dd8a43;stroke-width:1.23590553;stroke-linecap:butt;stroke-miterlimit:4;stroke-dasharray:none;stroke-dashoffset:0;stroke-opacity:1"
           d="m 232.1651,183.36094 c -3.88416,-7.48831 -9.55998,-12.60201 -16.57877,-14.93686 -2.38588,-0.79368 -5.15318,-1.35695 -7.50267,-1.52714 l -1.21113,-0.0877 1.02363,-0.61514 c 4.39174,-2.63915 7.55131,-7.13288 8.34516,-11.86903 l 0.16005,-0.95481 0.9484,1.89231 c 1.50849,3.00981 2.88052,4.94259 5.18986,7.31092 3.71606,3.81098 7.89924,6.28078 13.25517,7.82603 1.39652,0.40291 4.07851,0.90707 5.42091,1.01902 l 1.01081,0.0843 -0.92635,0.5279 c -1.43181,0.81595 -2.53671,1.6484 -3.64364,2.74517 -2.39918,2.37715 -3.92853,5.18879 -4.59895,8.45496 l -0.27217,1.326 z"
           id="path911"
           inkscape:connector-curvature="0"
           transform="scale(0.26458333)" />
        <path
           style="opacity:1;fill:#dd8a43;fill-opacity:1;stroke:#dd8a43;stroke-width:1.99559057;stroke-linecap:butt;stroke-miterlimit:4;stroke-dasharray:none;stroke-dashoffset:0;stroke-opacity:1"
           d="m 265.16985,178.93022 c -0.87924,-1.84816 -2.85149,-4.16098 -4.79958,-5.62839 -2.24212,-1.68889 -4.39951,-2.61841 -7.63295,-3.28868 -0.24981,-0.0518 0.055,-0.25066 1.625,-1.06039 3.34161,-1.72118 5.29026,-1.95593 8.81345,-6.29605 4.21025,-5.18649 7.31832,-10.47329 7.71238,-17.1642 l 0.0317,-0.53734 0.55376,0.76237 c 0.30457,0.4193 1.09866,1.28537 1.76464,1.92459 2.90047,2.78394 6.47207,4.40461 10.51397,4.77087 l 0.94721,0.0858 -1.95229,0.97693 c -10.04442,5.02625 -16.28694,13.79489 -17.13836,24.07362 -0.0788,0.95175 -0.1536,1.77 -0.16613,1.81833 -0.0125,0.0483 -0.13528,-0.14853 -0.27275,-0.4375 z"
           id="path913"
           inkscape:connector-curvature="0"
           transform="scale(0.26458333)"
           sodipodi:nodetypes="csccsccccccscccc" />
      </g>
      <ellipse
         style="opacity:1;fill:#1f5581;fill-opacity:1;stroke:none;stroke-width:0.33643049;stroke-linecap:butt;stroke-miterlimit:4;stroke-dasharray:none;stroke-dashoffset:0;stroke-opacity:1"
         id="path946"
         cx="73.111"
         cy="38.921925"
         rx="1.7363281"
         ry="1.6453776" />
    </g>
    <path
       style="fill:none;stroke:#dd8a43;stroke-width:0.26458332px;stroke-linecap:butt;stroke-linejoin:miter;stroke-opacity:1"
       d="m 80.019857,41.382412 c 0.11645,0.838948 0.46086,1.831445 0.0947,2.873424"
       id="path894"
       inkscape:connector-curvature="0"
       sodipodi:nodetypes="cc" />
  </g>
</svg>
